HIERARCHY
ROOT Hips
{
	OFFSET 0.000000 0.000000 0.000000
	CHANNELS 6 Xposition Yposition Zposition Xrotation Yrotation Zrotation
	JOINT LeftUpLeg_virtual
	{
		OFFSET 0.000000 0.000000 0.000000
		CHANNELS 3 Xrotation Yrotation Zrotation
		JOINT LeftUpLeg
		{
			OFFSET 13.026900 -6.336304 -1.092800
			CHANNELS 3 Xrotation Yrotation Zrotation
			JOINT LeftLeg
			{
				OFFSET 0.524474 -46.096886 9.782700
				CHANNELS 3 Xrotation Yrotation Zrotation
				JOINT LeftFoot
				{
					OFFSET -0.524474 -53.427422 -12.948200
					CHANNELS 3 Xrotation Yrotation Zrotation
					JOINT LeftToeBase
					{
						OFFSET 0.192200 -14.009700 16.364100
						CHANNELS 3 Xrotation Yrotation Zrotation
						JOINT LeftToe_End
						{
							OFFSET -1.784700 -0.561700 9.474800
							CHANNELS 3 Xrotation Yrotation Zrotation
							End Site
							{
								OFFSET 0 0 0
							}
						}
					}
				}
			}
		}
	}
	JOINT RightUpLeg_virtual
	{
		OFFSET 0.000000 0.000000 0.000000
		CHANNELS 3 Xrotation Yrotation Zrotation
		JOINT RightUpLeg
		{
			OFFSET -12.883000 -6.336304 -1.092800
			CHANNELS 3 Xrotation Yrotation Zrotation
			JOINT RightLeg
			{
				OFFSET -0.524587 -46.096825 9.782800
				CHANNELS 3 Xrotation Yrotation Zrotation
				JOINT RightFoot
				{
					OFFSET 0.524587 -53.427383 -12.948300
					CHANNELS 3 Xrotation Yrotation Zrotation
					JOINT RightToeBase
					{
						OFFSET -0.192200 -14.009700 16.364100
						CHANNELS 3 Xrotation Yrotation Zrotation
						JOINT RightToe_End
						{
							OFFSET 1.784700 -0.561700 9.474800
							CHANNELS 3 Xrotation Yrotation Zrotation
							End Site
							{
								OFFSET 0 0 0
							}
						}
					}
				}
			}
		}
	}
	JOINT Spine_virtual
	{
		OFFSET 0.000000 0.000000 0.000000
		CHANNELS 3 Xrotation Yrotation Zrotation
		JOINT Spine
		{
			OFFSET 0.072000 7.257294 -0.789700
			CHANNELS 3 Xrotation Yrotation Zrotation
			JOINT Spine1
			{
				OFFSET 0.000000 12.508769 -0.658067
				CHANNELS 3 Xrotation Yrotation Zrotation
				JOINT Spine1_split
				{
					OFFSET 0.000000 12.508769 -0.658067
					CHANNELS 3 Xrotation Yrotation Zrotation
					JOINT Spine2
					{
						OFFSET 0.000000 12.508769 -0.658067
						CHANNELS 3 Xrotation Yrotation Zrotation
						JOINT Neck_virtual
						{
							OFFSET 0.000000 0.000000 0.000000
							CHANNELS 3 Xrotation Yrotation Zrotation
							JOINT Neck
							{
								OFFSET 0.000000 14.033295 7.520400
								CHANNELS 3 Xrotation Yrotation Zrotation
								JOINT Head
								{
									OFFSET 0.000000 8.198502 5.703100
									CHANNELS 3 Xrotation Yrotation Zrotation
									JOINT HeadTop_End
									{
										OFFSET 0.000000 17.760803 13.332701
										CHANNELS 3 Xrotation Yrotation Zrotation
										End Site
										{
											OFFSET 0 0 0
										}
									}
								}
							}
						}
						JOINT LeftShoulder_virtual
						{
							OFFSET 0.000000 0.000000 0.000000
							CHANNELS 3 Xrotation Yrotation Zrotation
							JOINT LeftShoulder
							{
								OFFSET 6.292450 5.785301 -0.669000
								CHANNELS 3 Xrotation Yrotation Zrotation
								JOINT LeftShoulder_split
								{
									OFFSET 6.292450 5.785301 -0.669000
									CHANNELS 3 Xrotation Yrotation Zrotation
									JOINT LeftArm
									{
										OFFSET 13.907140 -6.093903 1.965100
										CHANNELS 3 Xrotation Yrotation Zrotation
										JOINT LeftForeArm
										{
											OFFSET 34.140198 0.000000 0.000000
											CHANNELS 3 Xrotation Yrotation Zrotation
											JOINT LeftHand
											{
												OFFSET 40.960209 0.000000 0.000000
												CHANNELS 3 Xrotation Yrotation Zrotation
												End Site
												{
													OFFSET 0 0 0
												}
											}
										}
									}
								}
							}
						}
						JOINT RightShoulder_virtual
						{
							OFFSET 0.000000 0.000000 0.000000
							CHANNELS 3 Xrotation Yrotation Zrotation
							JOINT RightShoulder
							{
								OFFSET -6.292450 5.785301 -0.669000
								CHANNELS 3 Xrotation Yrotation Zrotation
								JOINT RightShoulder_split
								{
									OFFSET -6.292450 5.785301 -0.669000
									CHANNELS 3 Xrotation Yrotation Zrotation
									JOINT RightArm
									{
										OFFSET -13.907140 -6.093903 1.965100
										CHANNELS 3 Xrotation Yrotation Zrotation
										JOINT RightForeArm
										{
											OFFSET -34.140198 0.000000 0.000000
											CHANNELS 3 Xrotation Yrotation Zrotation
											JOINT RightHand
											{
												OFFSET -40.960209 0.000000 0.000000
												CHANNELS 3 Xrotation Yrotation Zrotation
												End Site
												{
													OFFSET 0 0 0
												}
											}
										}
									}
								}
							}
						}
					}
				}
			}
		}
	}
}
MOTION
Frames: 4
Frame Time: 0.03333333
0.372644 51.705887 -12.659954 0.000000 0.000000 0.000000 0.293203 0.505586 0.850729 -15.162515 -3.896474 15.034710 104.671563 8.001988 1.454213 30.191454 -2.470987 -18.900433 13.512708 3.490026 15.852493 0.000000 0.000000 0.000000 0.293203 0.505586 0.850729 -13.020883 -0.535415 -14.589871 105.033099 0.639893 -0.541009 22.700282 1.934619 14.123422 -22.444813 -1.826190 -13.640878 0.000000 0.000000 0.000000 0.293203 0.505586 0.850729 1.235314 0.475222 -0.096346 0.110009 0.122969 -0.090715 0.000000 0.000000 0.000000 0.000000 0.000000 0.000000 0.108808 0.114775 -0.092286 -0.391164 0.001168 0.119094 -1.124861 0.498129 0.197438 0.000000 0.000000 0.000000 0.108808 0.114775 -0.092286 0.606873 -3.284650 -22.051945 0.000000 0.000000 0.000000 11.464579 -16.354593 -52.988522 -0.000001 -20.361388 0.000011 0.000000 0.000000 0.000000 0.108808 0.114775 -0.092286 -0.115224 9.903019 22.054927 0.000000 0.000000 0.000000 7.750432 7.038400 56.271948 -0.000008 19.886644 0.000048 0.000000 0.000000 0.000000 
0.375021 51.703674 -12.681889 0.000000 0.000000 0.000000 0.306170 0.351369 0.637244 -15.058320 -4.027856 15.334005 104.722919 7.820386 1.250819 30.135877 -2.418552 -18.967550 13.511747 3.489440 15.851042 0.000000 0.000000 0.000000 0.306170 0.351369 0.637244 -13.178034 -0.583571 -14.316509 105.058206 0.386218 -0.707239 22.783582 2.094660 14.050306 -22.441683 -1.827510 -13.645320 0.000000 0.000000 0.000000 0.306170 0.351369 0.637244 1.164207 0.503392 -0.081625 -0.003815 0.122969 -0.069356 0.000000 0.000000 0.000000 0.000000 0.000000 0.000000 0.082491 0.114775 -0.070304 -0.071077 -0.012587 0.139877 1.744315 0.480030 -0.128429 0.000000 0.000000 0.000000 0.082491 0.114775 -0.070304 0.612546 -3.237234 -22.011258 0.000000 0.000000 0.000000 11.987003 -15.467822 -52.997572 0.000007 -21.987776 0.000019 0.000000 0.000000 0.000000 0.082491 0.114775 -0.070304 -0.109608 9.836589 22.070947 0.000000 0.000000 0.000000 7.347449 6.953232 56.327894 -0.000000 19.192796 0.000002 0.000000 0.000000 0.000000 
0.377752 51.701439 -12.699757 0.000000 0.000000 0.000000 0.314808 0.201379 0.423124 -14.964641 -4.088288 15.616947 104.762473 7.608552 1.102125 30.077076 -2.303100 -19.053610 13.510941 3.488928 15.849852 0.000000 0.000000 0.000000 0.314808 0.201379 0.423124 -13.322450 -0.639450 -14.036916 105.076942 0.171846 -0.868095 22.864111 2.211526 13.992362 -22.439671 -1.828360 -13.648309 0.000000 0.000000 0.000000 0.314808 0.201379 0.423124 1.084956 0.524992 -0.065189 -0.112616 0.122970 -0.049261 0.000000 0.000000 0.000000 0.000000 0.000000 0.000000 0.054640 0.117964 -0.049826 0.235781 -0.027848 0.159711 4.512339 0.440022 -0.446023 0.000000 0.000000 0.000000 0.054640 0.117964 -0.049826 0.631746 -3.067925 -21.968226 0.000000 0.000000 0.000000 12.694672 -13.897988 -53.165383 0.000011 -24.452509 0.000016 0.000000 0.000000 0.000000 0.054640 0.117964 -0.049826 -0.107065 9.704569 22.126628 0.000000 0.000000 0.000000 6.969239 6.423778 56.272112 0.000001 18.707391 0.000026 0.000000 0.000000 0.000000 
0.380430 51.698242 -12.719517 0.000000 0.000000 0.000000 0.323655 0.051320 0.208440 -14.891136 -4.088369 15.886923 104.797361 7.357837 0.995744 30.017206 -2.125947 -19.156109 13.508970 3.487706 15.847113 0.000000 0.000000 0.000000 0.323655 0.051320 0.208440 -13.471859 -0.705841 -13.745660 105.097617 0.017488 -1.028865 22.945028 2.258643 13.957271 -22.439070 -1.828646 -13.649317 0.000000 0.000000 0.000000 0.323655 0.051320 0.208440 1.007309 0.547102 -0.048379 -0.222423 0.122969 -0.028913 0.000000 0.000000 0.000000 0.000000 0.000000 0.000000 0.027092 0.124483 -0.029047 0.545297 -0.042807 0.179735 7.300211 0.405862 -0.764440 0.000000 0.000000 0.000000 0.027092 0.124483 -0.029047 0.662810 -2.777625 -21.944151 0.000000 0.000000 0.000000 13.441261 -11.777714 -53.496958 0.000008 -27.358702 0.000005 0.000000 0.000000 0.000000 0.027092 0.124483 -0.029047 -0.104830 9.499841 22.226423 0.000000 0.000000 0.000000 6.558173 5.591045 56.067500 -0.000002 18.195883 -0.000004 0.000000 0.000000 0.000000 
